<svg width="190" height="41" fill="none" xmlns="http://www.w3.org/2000/svg"><g clip-path="url(#clip0_53610_187056)"><path d="M182.464 2.837a.911.911 0 00-.802-1.009l-8.147-.93a.91.91 0 10-.206 1.81l7.241.827-.826 7.242a.91.91 0 101.81.207l.93-8.147zM7.902 3.463c1.19.89 2.373 1.762 3.549 2.619l1.073-1.473a377.467 377.467 0 01-3.531-2.606l-1.09 1.46zm10.68 7.68c2.45 1.69 4.87 3.308 7.264 4.854l.989-1.53a286.91 286.91 0 01-7.219-4.824l-1.034 1.5zm14.71 9.484a209.39 209.39 0 007.627 4.343l.867-1.603a207.69 207.69 0 01-7.56-4.304l-.934 1.564zm15.423 8.325a152.139 152.139 0 008.03 3.574l.692-1.686a150.434 150.434 0 01-7.934-3.532l-.788 1.643zm16.256 6.637c2.84.947 5.654 1.77 8.449 2.469l.442-1.768a112.318 112.318 0 01-8.314-2.43l-.577 1.729zm17.062 4.237c2.935.47 5.852.798 8.757.986l.118-1.819a91.885 91.885 0 01-8.587-.966l-.288 1.8zM99.6 40.95a90.007 90.007 0 008.781-.728l-.239-1.806a88.187 88.187 0 01-8.602.713l.06 1.82zm17.453-2.292a103.113 103.113 0 008.479-2.33l-.556-1.735a101.165 101.165 0 01-8.329 2.288l.406 1.777zm16.749-5.336a133.539 133.539 0 008.017-3.575l-.795-1.64a132.307 132.307 0 01-7.907 3.527l.685 1.688zm15.807-7.635a183.636 183.636 0 007.546-4.444l-.961-1.548a181.99 181.99 0 01-7.471 4.4l.886 1.592zm14.908-9.228a255.257 255.257 0 007.156-5.038L170.6 9.949a256.045 256.045 0 01-7.105 5.002l1.022 1.508zm14.142-10.292a348.77 348.77 0 003.466-2.72l-1.133-1.427a318.24 318.24 0 01-3.449 2.706l1.116 1.44z" fill="#1F2937"/></g><defs><clipPath id="clip0_53610_187056"><path fill="#fff" transform="translate(7.535)" d="M0 0h174.933v41H0z"/></clipPath></defs></svg>