<svg width="17" height="12" fill="none" xmlns="http://www.w3.org/2000/svg"><path d="M15.881 3.969c.125-.094.313 0 .313.156V10.5a1.5 1.5 0 01-1.5 1.5h-13a1.48 1.48 0 01-1.5-1.5V4.125c0-.156.156-.25.281-.156.719.562 1.625 1.25 4.813 3.562.656.469 1.78 1.5 2.906 1.5 1.093 0 2.25-1.031 2.875-1.5 3.187-2.312 4.093-3 4.812-3.562zM8.194 8c-.75.031-1.782-.906-2.313-1.281-4.156-3-4.469-3.282-5.406-4.032-.188-.124-.281-.343-.281-.593V1.5a1.5 1.5 0 011.5-1.5h13c.812 0 1.5.688 1.5 1.5v.594a.71.71 0 01-.313.594c-.937.75-1.25 1.03-5.406 4.03C9.944 7.095 8.912 8.032 8.194 8z" fill="#fff"/></svg>