<svg width="40" height="40" fill="none" xmlns="http://www.w3.org/2000/svg"><rect width="40" height="40" rx="5" fill="#B9B9B9" fill-opacity=".2"/><g clip-path="url(#clip0_53226_15467)"><path d="M26.816 12H13.18c-.653 0-1.181.516-1.181 1.153v13.69A1.17 1.17 0 0013.181 28h13.635c.653 0 1.184-.519 1.184-1.153V13.153c0-.637-.531-1.153-1.184-1.153zm-10.07 13.634h-2.374v-7.637h2.375v7.637zm-1.187-8.678a1.376 1.376 0 11-.004-2.751 1.376 1.376 0 01.004 2.751zm10.075 8.678h-2.372v-3.712c0-.884-.015-2.025-1.234-2.025-1.234 0-1.422.966-1.422 1.962v3.775h-2.369v-7.637h2.276v1.044h.03c.316-.6 1.091-1.235 2.245-1.235 2.403 0 2.846 1.581 2.846 3.638v4.19z" fill="#6B7280"/></g><defs><clipPath id="clip0_53226_15467"><path fill="#fff" transform="translate(12 12)" d="M0 0h16v16H0z"/></clipPath></defs></svg>