<svg width="42" height="35" fill="none" xmlns="http://www.w3.org/2000/svg"><path d="M17.539 15.89H6.692c.201-2.439 1.272-4.71 3-6.367 1.73-1.656 3.991-2.577 6.34-2.58a.77.77 0 00.557-.241.84.84 0 00.231-.582V.823a.84.84 0 00-.23-.582.773.773 0 00-.56-.241C7.191 0 0 7.497 0 16.713v17.464a.84.84 0 00.231.582A.773.773 0 00.79 35h16.75c.21 0 .41-.087.558-.241a.841.841 0 00.231-.582V16.713a.841.841 0 00-.231-.582.773.773 0 00-.558-.24zm-.79 17.464H1.58v-16.64c0-8.033 6.059-14.617 13.663-15.045v3.657C9.57 5.75 5.08 10.696 5.08 16.713c0 .218.083.428.231.582a.773.773 0 00.558.241h10.88v15.818zM41.211 15.89H30.362c.201-2.439 1.272-4.71 3-6.367 1.73-1.657 3.991-2.577 6.34-2.58.209 0 .41-.087.558-.241a.841.841 0 00.23-.582V.823a.841.841 0 00-.23-.582.773.773 0 00-.558-.241C30.86 0 23.67 7.497 23.67 16.713v17.464a.84.84 0 00.231.582.773.773 0 00.559.241h16.75c.21 0 .41-.087.559-.241a.841.841 0 00.231-.582V16.713a.841.841 0 00-.231-.582.773.773 0 00-.558-.24zm-.79 17.464H25.25v-16.64c0-8.033 6.06-14.617 13.663-15.045v3.657c-5.672.423-10.16 5.37-10.16 11.387 0 .218.083.428.231.582a.773.773 0 00.558.241h10.88v15.818z" fill="#fff" fill-opacity=".8"/></svg>