<svg width="60" height="45" fill="none" xmlns="http://www.w3.org/2000/svg"><g clip-path="url(#clip0_53610_186647)"><path d="M34.945 24.57H50.44c-.287 3.136-1.817 6.056-4.287 8.186-2.47 2.13-5.7 3.313-9.055 3.318-.299 0-.586.111-.797.31-.212.198-.33.467-.33.748v6.81c0 .28.119.55.33.748.211.199.498.31.797.31C49.728 45 60 35.36 60 23.512V1.058c0-.28-.119-.55-.33-.748a1.166 1.166 0 00-.798-.31H34.945c-.3 0-.586.111-.798.31-.211.198-.33.467-.33.748v22.454c0 .28.119.55.33.748.212.198.498.31.798.31zm1.127-22.454h21.673v21.396c0 10.327-8.656 18.792-19.52 19.342v-4.702c8.104-.544 14.518-6.904 14.518-14.64 0-.281-.12-.55-.33-.749a1.166 1.166 0 00-.798-.31H36.072V2.116zM1.128 24.57h15.497c-.287 3.136-1.816 6.057-4.286 8.187-2.47 2.13-5.701 3.313-9.055 3.317-.3 0-.586.111-.798.31-.211.198-.33.467-.33.748v6.81c0 .28.119.55.33.748.212.199.499.31.798.31 12.629 0 22.901-9.64 22.901-21.488V1.058c0-.28-.118-.55-.33-.748a1.166 1.166 0 00-.797-.31H1.128C.828 0 .542.111.33.31a1.03 1.03 0 00-.33.748v22.454c0 .28.119.55.33.748.212.198.499.31.798.31zM2.255 2.116H23.93v21.396c0 10.327-8.658 18.792-19.519 19.342v-4.702c8.103-.544 14.515-6.904 14.515-14.64 0-.281-.119-.55-.33-.749a1.167 1.167 0 00-.798-.31H2.255V2.116z" fill="#E5E7EB"/></g><defs><clipPath id="clip0_53610_186647"><path fill="#fff" d="M0 0h60v45H0z"/></clipPath></defs></svg>