<svg width="14" height="15" fill="none" xmlns="http://www.w3.org/2000/svg"><g clip-path="url(#clip0_53521_2616)"><g clip-path="url(#clip1_53521_2616)"><g clip-path="url(#clip2_53521_2616)"><path d="M14 3.09a3 3 0 01-3 3 3.065 3.065 0 01-2.094-.813L5.97 6.747v.718l2.937 1.469A3.09 3.09 0 0111 8.09a3 3 0 010 6 2.98 2.98 0 01-3-3v-.344L5.062 9.277c-.53.5-1.28.813-2.062.813-1.688 0-3-1.344-3-3s1.313-3 3-3c.781 0 1.531.344 2.063.844L8 3.465V3.09c0-1.656 1.313-3 3-3a3 3 0 013 3zm-11.031 5c.562 0 1-.438 1-1 0-.531-.438-1-1-1-.531 0-1 .469-1 1 0 .562.468 1 1 1zm8.031-6c-.563 0-1 .469-1 1 0 .562.438 1 1 1 .531 0 1-.438 1-1 0-.531-.469-1-1-1zm0 10c.531 0 1-.438 1-1 0-.531-.469-1-1-1-.563 0-1 .469-1 1 0 .563.438 1 1 1z" fill="#fff"/></g></g></g><defs><clipPath id="clip0_53521_2616"><path fill="#fff" transform="translate(0 .09)" d="M0 0h14v14H0z"/></clipPath><clipPath id="clip1_53521_2616"><path fill="#fff" transform="translate(0 .09)" d="M0 0h14v14H0z"/></clipPath><clipPath id="clip2_53521_2616"><path fill="#fff" transform="translate(0 .09)" d="M0 0h14v14H0z"/></clipPath></defs></svg>