<svg width="190" height="41" fill="none" xmlns="http://www.w3.org/2000/svg"><g clip-path="url(#clip0_53610_187048)"><path d="M182.464 38.163a.911.911 0 01-.802 1.009l-8.147.93a.91.91 0 11-.206-1.81l7.241-.827-.826-7.242a.91.91 0 111.81-.207l.93 8.147zM7.902 37.537c1.19-.89 2.373-1.762 3.549-2.619l1.073 1.473a376.93 376.93 0 00-3.531 2.606l-1.09-1.46zm10.68-7.68c2.45-1.69 4.87-3.308 7.264-4.854l.989 1.53a286.804 286.804 0 00-7.219 4.824l-1.034-1.5zm14.71-9.484a209.39 209.39 0 017.627-4.343l.867 1.603a207.69 207.69 0 00-7.56 4.304l-.934-1.564zm15.423-8.325a152.123 152.123 0 018.03-3.574l.692 1.686a150.434 150.434 0 00-7.934 3.532l-.788-1.643zm16.256-6.637c2.84-.947 5.654-1.77 8.449-2.469l.442 1.768a112.308 112.308 0 00-8.314 2.43l-.578-1.73zm17.062-4.237A93.68 93.68 0 0190.79.188l.118 1.819a91.874 91.874 0 00-8.587.966l-.288-1.8zM99.6.05a90.01 90.01 0 018.781.727l-.239 1.807a88.178 88.178 0 00-8.602-.713l.06-1.82zm17.453 2.292c2.819.645 5.643 1.421 8.479 2.33l-.556 1.735a101.18 101.18 0 00-8.329-2.288l.406-1.777zm16.749 5.336a133.52 133.52 0 018.017 3.575l-.795 1.64a132.3 132.3 0 00-7.907-3.526l.685-1.689zm15.807 7.635a183.636 183.636 0 017.546 4.444l-.961 1.548a181.99 181.99 0 00-7.471-4.4l.886-1.592zm14.908 9.228a255.257 255.257 0 017.156 5.038l-1.073 1.472a256.066 256.066 0 00-7.105-5.002l1.022-1.508zm14.142 10.292a348.77 348.77 0 013.466 2.72l-1.133 1.427a333.882 333.882 0 00-3.449-2.706l1.116-1.44z" fill="#1F2937"/></g><defs><clipPath id="clip0_53610_187048"><path fill="#fff" transform="matrix(1 0 0 -1 7.535 41)" d="M0 0h174.933v41H0z"/></clipPath></defs></svg>